<?xml version="1.0" encoding="UTF-8" standalone="no"?>
<!-- Created with Inkscape (http://www.inkscape.org/) -->

<svg
   width="277.81445mm"
   height="48.098606mm"
   viewBox="0 0 277.81446 48.098606"
   version="1.1"
   id="svg429"
   inkscape:version="1.3.2 (091e20e, 2023-11-25, custom)"
   sodipodi:docname="logo.svg"
   xml:space="preserve"
   xmlns:inkscape="http://www.inkscape.org/namespaces/inkscape"
   xmlns:sodipodi="http://sodipodi.sourceforge.net/DTD/sodipodi-0.dtd"
   xmlns="http://www.w3.org/2000/svg"
   xmlns:svg="http://www.w3.org/2000/svg"><sodipodi:namedview
     id="namedview431"
     pagecolor="#ffffff"
     bordercolor="#666666"
     borderopacity="1.0"
     inkscape:showpageshadow="2"
     inkscape:pageopacity="0.0"
     inkscape:pagecheckerboard="0"
     inkscape:deskcolor="#d1d1d1"
     inkscape:document-units="mm"
     showgrid="false"
     inkscape:zoom="0.2102413"
     inkscape:cx="209.28333"
     inkscape:cy="561.25985"
     inkscape:window-width="1878"
     inkscape:window-height="1068"
     inkscape:window-x="1933"
     inkscape:window-y="50"
     inkscape:window-maximized="0"
     inkscape:current-layer="layer1" /><defs
     id="defs426"><style
       id="style1">
      .cls-1 {
        fill: #fdb71a;
        stroke-width: 0px;
      }
    </style></defs><g
     inkscape:label="Layer 1"
     inkscape:groupmode="layer"
     id="layer1"
     transform="translate(-23.066953,-88.961042)"><g
       id="g1"><text
         xml:space="preserve"
         style="font-style:normal;font-variant:normal;font-weight:bold;font-stretch:normal;font-size:37.1518px;line-height:1.25;font-family:'DejaVu Sans';-inkscape-font-specification:'DejaVu Sans Bold';letter-spacing:0px;stroke:#ffffff;stroke-width:0.877602;stroke-dasharray:none;stroke-opacity:1"
         x="77.393921"
         y="121.00014"
         id="text566"
         transform="scale(0.9705017,1.0303949)"><tspan
           sodipodi:role="line"
           id="tspan564"
           x="77.393921"
           y="121.00014"
           style="font-style:normal;font-variant:normal;font-weight:bold;font-stretch:normal;font-size:37.1518px;font-family:'DejaVu Sans';-inkscape-font-specification:'DejaVu Sans Bold';stroke:#ffffff;stroke-width:0.877602;stroke-dasharray:none;stroke-opacity:1">PySherlock</tspan></text><path
         class="cls-1"
         d="m 47.112306,105.23027 c -4.28625,0 -7.77346,3.48721 -7.77346,7.77346 0,3.04006 1.74361,5.75998 4.47411,7.03792 l 0.37835,0.16933 c 0.0529,0.0212 0.10848,0.0423 0.16669,0.0662 l 0.0714,0.0264 c 0.0635,0.0238 0.127,0.045 0.19314,0.0688 v 2.16429 l 0.48154,0.10054 c 0.66146,0.13758 1.3388,0.20902 2.00819,0.20902 0.508,0 1.02394,-0.0397 1.53458,-0.12171 l 0.51065,-0.0794 v -2.13519 c 0.19844,-0.0529 0.39952,-0.11906 0.60854,-0.19315 0.09,-0.0318 0.17992,-0.0688 0.26988,-0.10583 l 0.37571,-0.15346 v -0.0132 c 2.7305,-1.27794 4.4741,-3.99785 4.4741,-7.03791 0,-4.28625 -3.48721,-7.77346 -7.77346,-7.77346 z m 2.46856,13.85623 -0.16669,0.0688 c -0.0238,0.008 -0.0476,0.0185 -0.0714,0.0265 -0.16933,0.0609 -0.34131,0.11642 -0.53445,0.16669 l -0.0688,0.0185 c -0.10055,0.0265 -0.20373,0.0556 -0.30692,0.0767 l -0.48154,0.0979 v 2.05052 c -0.71173,0.0688 -1.41552,0.0503 -2.11667,-0.0556 v -2.07698 l -0.58208,-0.16139 c -0.11642,-0.0344 -0.23284,-0.0714 -0.34925,-0.11113 l -0.25665,-0.10319 c -2.48973,-1.0107 -4.09839,-3.39989 -4.09839,-6.08277 0,-3.6195 2.94481,-6.56695 6.56695,-6.56695 3.62215,0 6.56432,2.94481 6.56432,6.56695 0,2.68552 -1.60867,5.07471 -4.09575,6.08277 z m -2.46856,-21.11375 c -8.29204,0 -15.03892,6.74688 -15.03892,15.03892 0,8.29204 6.74688,15.03891 15.03892,15.03891 8.29204,0 15.03892,-6.74687 15.03892,-15.03891 0,-8.29204 -6.74688,-15.03892 -15.03892,-15.03892 z m 0,28.87133 c -7.62794,0 -13.83242,-6.20448 -13.83242,-13.83241 0,-7.62794 6.20448,-13.83242 13.83242,-13.83242 7.62794,0 13.83242,6.20448 13.83242,13.83242 0,7.62793 -6.20448,13.83241 -13.83242,13.83241 z m 23.40504,-18.15306 v 0 c -0.30692,-0.19844 -0.92339,-0.38364 -1.37583,-0.46831 l -4.23598,-0.78317 c -0.381,-0.0714 -0.83608,-0.21166 -1.01865,-0.29898 -0.12964,-0.12435 -0.43656,-0.60589 -0.53975,-0.84931 -0.0953,-0.22754 -0.19843,-0.59267 -0.23283,-0.81227 0.037,-0.19844 0.30956,-0.79375 0.52123,-1.10067 l 2.4421,-3.55335 c 0.25929,-0.37836 0.56357,-0.94721 0.64029,-1.3044 0.15611,-0.71702 -0.9181,-1.830914 -0.93133,-1.841497 l -3.33904,-3.341688 c -0.32544,-0.325437 -0.82815,-0.727604 -1.16417,-0.867833 -0.67468,-0.283104 -1.9685,0.5715 -1.97908,0.579438 l -3.55335,2.442104 c -0.32015,0.219604 -0.74084,0.441854 -0.93134,0.508 h -0.0106 c -0.1905,0 -0.73025,-0.121709 -0.97102,-0.22225 -0.22754,-0.0926 -0.55827,-0.277813 -0.73819,-0.410104 -0.11112,-0.166688 -0.34131,-0.780521 -0.4101,-1.148292 l -0.78317,-4.235979 c -0.082,-0.449792 -0.26988,-1.066271 -0.46831,-1.375834 -0.39688,-0.616479 -1.94469,-0.645583 -1.96057,-0.645583 h -4.72281 c -0.45773,0 -1.10066,0.07144 -1.43669,0.211667 -0.67997,0.277812 -0.98689,1.793875 -0.98954,1.80975 l -0.78316,4.235979 c -0.0714,0.381 -0.21167,0.836083 -0.29898,1.018646 -0.12436,0.129646 -0.6059,0.436562 -0.85196,0.53975 -0.22754,0.09525 -0.59267,0.198437 -0.81227,0.232833 -0.19844,-0.03704 -0.79375,-0.309562 -1.10067,-0.521229 l -3.55335,-2.442104 c -0.37836,-0.259292 -0.94721,-0.563563 -1.3044,-0.640292 -0.72231,-0.156104 -1.83092,0.918104 -1.8415,0.931333 l -3.33904,3.339042 c -0.32544,0.325438 -0.727601,0.828143 -0.867831,1.164163 -0.28311,0.67469 0.571501,1.9685 0.579431,1.97909 l 2.44211,3.55335 c 0.2196,0.32015 0.44185,0.74083 0.508,0.93133 0.005,0.17992 -0.11906,0.73555 -0.22225,0.98161 -0.0926,0.22754 -0.27781,0.56092 -0.41011,0.73819 -0.16668,0.11377 -0.78052,0.34131 -1.14829,0.4101 l -4.235982,0.78317 c -0.449791,0.0847 -1.068911,0.26987 -1.375831,0.46831 -0.61648,0.39687 -0.64558,1.94469 -0.64558,1.96056 v 4.72281 c 0,0.45773 0.0714,1.10067 0.21166,1.43934 0.27782,0.67733 1.793881,0.98689 1.809751,0.98954 l 4.235982,0.78317 c 0.381,0.0714 0.83609,0.21166 1.01865,0.29898 0.12964,0.12435 0.43656,0.60589 0.53975,0.85195 0.0952,0.22755 0.19844,0.59267 0.23283,0.81227 -0.037,0.19844 -0.30956,0.79375 -0.52123,1.10067 l -2.4421,3.55336 c -0.259291,0.37835 -0.563561,0.9472 -0.640291,1.30439 -0.15611,0.71702 0.918101,1.83092 0.931331,1.8415 l 3.33904,3.33904 c 0.32544,0.32544 0.82815,0.72761 1.16681,0.86784 0.67469,0.28045 1.96586,-0.5715 1.97909,-0.57944 l 3.55335,-2.44211 c 0.32015,-0.2196 0.73819,-0.44185 0.93133,-0.508 0.18786,-0.0159 0.73819,0.11907 0.98161,0.22225 0.22754,0.0952 0.56092,0.28046 0.74083,0.41011 0.11113,0.16669 0.34131,0.78052 0.41011,1.14829 l 0.78316,4.23598 c 0.0847,0.45244 0.27252,1.06892 0.46832,1.37583 0.39687,0.61648 1.94468,0.64559 1.96056,0.64559 h 4.72281 c 0.45773,0 1.10067,-0.0714 1.43933,-0.21167 0.67734,-0.27781 0.9869,-1.79388 0.98955,-1.80975 l 0.78316,-4.23598 c 0.0714,-0.381 0.21167,-0.83608 0.29898,-1.01865 0.12436,-0.12964 0.6059,-0.43656 0.84931,-0.53975 0.22755,-0.0952 0.59267,-0.19843 0.81227,-0.23283 0.19844,0.037 0.79375,0.30956 1.10067,0.52123 l 3.55336,2.4421 c 0.37835,0.2593 0.9472,0.56357 1.30439,0.6403 0.71702,0.15875 1.83092,-0.91811 1.8415,-0.93134 l 3.33904,-3.33904 c 0.32544,-0.32544 0.72761,-0.82814 0.86784,-1.16417 0.2831,-0.67733 -0.56886,-1.9685 -0.57944,-1.98172 l -2.44211,-3.55336 c -0.23547,-0.34396 -0.44714,-0.75671 -0.508,-0.93133 -0.005,-0.17992 0.11907,-0.73554 0.22225,-0.98161 0.0953,-0.22754 0.28046,-0.56091 0.41011,-0.73818 0.16669,-0.11377 0.78052,-0.34132 1.14829,-0.41011 l 4.23598,-0.78316 c 0.44979,-0.082 1.06627,-0.26988 1.37583,-0.46832 0.61648,-0.39687 0.64559,-1.94468 0.64559,-1.96056 v -4.72281 c 0,-0.0159 -0.0291,-1.56369 -0.64559,-1.96056 z m -0.56092,6.68338 c 0,0.29898 -0.0926,0.78581 -0.17197,0.98689 -0.16405,0.0714 -0.50536,0.1905 -0.86255,0.25665 l -4.23598,0.78316 c -0.0132,0 -1.4605,0.31486 -1.85737,0.8255 -0.19579,0.254 -0.45244,0.7038 -0.59531,1.04775 -0.005,0.0106 -0.44715,1.19592 -0.26988,1.77007 0.10848,0.35718 0.43127,0.93133 0.67734,1.28852 l 2.4421,3.55335 c 0.16933,0.24606 0.36777,0.70115 0.41804,0.91017 -0.0926,0.15081 -0.30692,0.44185 -0.56356,0.6985 l -3.33904,3.33904 c -0.21167,0.21167 -0.62177,0.48948 -0.81757,0.57679 -0.16668,-0.0635 -0.49212,-0.22225 -0.7911,-0.42862 l -3.55071,-2.44211 c 0,0 -1.25677,-0.81756 -1.89971,-0.7276 -0.3175,0.0397 -0.81756,0.17992 -1.16152,0.32014 -0.0106,0.005 -1.15887,0.52917 -1.44198,1.06363 -0.17462,0.33073 -0.35189,0.96308 -0.43127,1.38906 l -0.78316,4.23598 c -0.0529,0.29369 -0.23548,0.75406 -0.34925,0.93663 -0.17463,0.0423 -0.53182,0.0952 -0.8943,0.0952 h -4.72281 c -0.29898,0 -0.78581,-0.0926 -0.98689,-0.17198 -0.0714,-0.1614 -0.1905,-0.50536 -0.25665,-0.86254 l -0.78317,-4.23598 c 0,-0.0132 -0.31485,-1.46315 -0.8255,-1.85738 -0.254,-0.19579 -0.70379,-0.45244 -1.04775,-0.59531 -0.0106,-0.005 -1.19591,-0.44715 -1.77006,-0.26988 -0.35719,0.10848 -0.93133,0.43127 -1.28852,0.67734 l -3.55071,2.4421 c -0.24606,0.16933 -0.70114,0.36777 -0.91016,0.41804 -0.15346,-0.0926 -0.44186,-0.30956 -0.6985,-0.56621 l -3.33905,-3.33904 c -0.21166,-0.21166 -0.48948,-0.62177 -0.57679,-0.81756 0.0635,-0.16669 0.22225,-0.49212 0.42863,-0.7911 l 2.4421,-3.55336 c 0,0 0.81227,-1.25677 0.72761,-1.89971 -0.0397,-0.3175 -0.17992,-0.81756 -0.32015,-1.15887 -0.005,-0.0106 -0.52917,-1.15888 -1.06363,-1.44198 -0.33072,-0.17463 -0.96308,-0.35454 -1.38906,-0.43127 l -4.235982,-0.78317 c -0.29368,-0.0529 -0.754061,-0.23548 -0.939271,-0.34925 -0.0423,-0.17462 -0.0952,-0.53181 -0.0952,-0.89429 v -4.72281 c 0,-0.29898 0.0926,-0.78581 0.171979,-0.9869 0.16404,-0.0714 0.505361,-0.1905 0.862541,-0.25664 l 4.235982,-0.78317 c 0.0132,-0.003 1.4605,-0.31485 1.85738,-0.8255 0.19579,-0.254 0.45243,-0.70379 0.59531,-1.04775 0.005,-0.0106 0.44715,-1.19592 0.26987,-1.77006 -0.10847,-0.35719 -0.43127,-0.93134 -0.67733,-1.28852 l -2.4421,-3.55336 c -0.16934,-0.24606 -0.36777,-0.70114 -0.41804,-0.91016 0.0926,-0.15082 0.30956,-0.44186 0.56356,-0.6985 l 3.33904,-3.339046 c 0.21167,-0.211667 0.62177,-0.489479 0.81756,-0.576792 0.16669,0.0635 0.49213,0.22225 0.79111,0.428625 l 3.55335,2.442104 c 0,0 1.25413,0.812271 1.89971,0.727604 0.3175,-0.03969 0.81756,-0.179916 1.15887,-0.320145 0.0106,-0.0053 1.15888,-0.529167 1.44198,-1.063625 0.17463,-0.328084 0.3519,-0.960438 0.43392,-1.389063 l 0.78317,-4.235979 c 0.0529,-0.293688 0.23548,-0.754063 0.3466,-0.939271 0.17463,-0.04233 0.53181,-0.09525 0.89429,-0.09525 h 4.72281 c 0.29898,0 0.78582,0.0926 0.9869,0.171979 0.0714,0.164042 0.1905,0.505354 0.25665,0.862542 l 0.78316,4.235979 c 0,0.01323 0.31486,1.4605 0.8255,1.857375 0.254,0.195792 0.70644,0.452438 1.04775,0.595313 0.0106,0.0053 1.19327,0.4445 1.77007,0.269875 0.35718,-0.10848 0.92868,-0.431271 1.28852,-0.677334 l 3.55335,-2.442104 c 0.24606,-0.169333 0.6985,-0.367771 0.90752,-0.418042 0.15346,0.0926 0.4445,0.309563 0.6985,0.563563 l 3.33904,3.341692 c 0.21167,0.21166 0.48948,0.62177 0.57679,0.81756 -0.0635,0.16669 -0.22225,0.49212 -0.42862,0.7911 l -2.4421,3.55071 c 0,0 -0.81228,1.25413 -0.72761,1.89971 0.0397,0.3175 0.17992,0.81756 0.32015,1.16152 0.005,0.0106 0.52916,1.15887 1.06362,1.44198 0.33073,0.17462 0.96309,0.35454 1.38906,0.43127 l 4.23598,0.78317 c 0.35719,0.0661 0.6985,0.18256 0.86255,0.25664 0.0767,0.20109 0.17197,0.68792 0.17197,0.9869 v 4.72281 z"
         id="path1" /></g></g></svg>
